<svg width="126" height="152" viewBox="0 0 126 152" fill="none" xmlns="http://www.w3.org/2000/svg">
<path d="M121.091 84.6364C121.091 116.747 94.9012 142.818 62.5454 142.818C30.1897 142.818 4 116.747 4 84.6364C4 52.5254 30.1897 26.4545 62.5454 26.4545C94.9012 26.4545 121.091 52.5254 121.091 84.6364Z" stroke="white" stroke-width="8"/>
<path d="M89.4858 70L89.4858 100.859C89.4858 103.776 88.392 106.38 86.2045 108.672C83.7566 111.172 80.6577 112.422 76.9077 112.422L76.9076 106.016C79.7201 106.016 81.5691 104.792 82.4545 102.344C82.7149 101.562 82.8451 100.781 82.8451 100L82.8451 70L89.4858 70ZM73.392 106.016L73.392 112.422C69.4337 112.318 66.3087 110.937 64.017 108.281C61.4129 110.937 58.2879 112.318 54.642 112.422L54.642 106.016C57.4545 106.016 59.3295 104.792 60.267 102.344C60.5274 101.615 60.6576 100.833 60.6576 100L60.6576 70L67.2983 70L67.2983 100C67.2983 102.656 68.4181 104.479 70.6576 105.469C71.491 105.833 72.4024 106.016 73.392 106.016ZM51.1264 106.016L51.1264 112.422C46.1785 112.422 42.5066 110.391 40.1108 106.328C39.017 104.453 38.4701 102.63 38.4701 100.859L38.4701 70L45.1108 70L45.1108 100C45.1108 102.865 46.3087 104.74 48.7045 105.625C49.4337 105.885 50.241 106.016 51.1264 106.016Z" fill="#6EC827"/>
</svg>
